<?xml version="1.0" encoding="utf-8" standalone="no"?>
<!DOCTYPE svg PUBLIC "-//W3C//DTD SVG 1.1//EN"
  "http://www.w3.org/Graphics/SVG/1.1/DTD/svg11.dtd">
<svg xmlns:xlink="http://www.w3.org/1999/xlink" width="624.316875pt" height="301.078828pt" viewBox="0 0 624.316875 301.078828" xmlns="http://www.w3.org/2000/svg" version="1.1">
 <metadata>
  <rdf:RDF xmlns:dc="http://purl.org/dc/elements/1.1/" xmlns:cc="http://creativecommons.org/ns#" xmlns:rdf="http://www.w3.org/1999/02/22-rdf-syntax-ns#">
   <cc:Work>
    <dc:type rdf:resource="http://purl.org/dc/dcmitype/StillImage"/>
    <dc:date>2025-08-21T13:55:14.652145</dc:date>
    <dc:format>image/svg+xml</dc:format>
    <dc:creator>
     <cc:Agent>
      <dc:title>Matplotlib v3.10.0, https://matplotlib.org/</dc:title>
     </cc:Agent>
    </dc:creator>
   </cc:Work>
  </rdf:RDF>
 </metadata>
 <defs>
  <style type="text/css">*{stroke-linejoin: round; stroke-linecap: butt}</style>
 </defs>
 <g id="figure_1">
  <g id="patch_1">
   <path d="M 0 301.078828 
L 624.316875 301.078828 
L 624.316875 0 
L 0 0 
z
" style="fill: #ffffff"/>
  </g>
  <g id="axes_1">
   <g id="patch_2">
    <path d="M 56.116875 249.754688 
L 617.116875 249.754688 
L 617.116875 26.877187 
L 56.116875 26.877187 
z
" style="fill: #ffffff"/>
   </g>
   <g id="matplotlib.axis_1">
    <g id="xtick_1">
     <g id="line2d_1">
      <defs>
       <path id="md10da9ff04" d="M 0 0 
L 0 3 
" style="stroke: #262626; stroke-width: 0.8"/>
      </defs>
      <g>
       <use xlink:href="#md10da9ff04" x="126.241875" y="249.754688" style="fill: #262626; stroke: #262626; stroke-width: 0.8"/>
      </g>
     </g>
     <g id="text_1">
      <!-- C++ -->
      <g style="fill: #262626" transform="translate(106.102852 268.792109) scale(0.165 -0.165)">
       <defs>
        <path id="DejaVuSerif-43" d="M 4513 1234 
Q 4306 581 3820 245 
Q 3334 -91 2591 -91 
Q 2134 -91 1743 65 
Q 1353 222 1050 525 
Q 700 875 529 1320 
Q 359 1766 359 2328 
Q 359 3416 987 4083 
Q 1616 4750 2644 4750 
Q 3025 4750 3456 4650 
Q 3888 4550 4384 4347 
L 4384 3272 
L 4031 3272 
Q 3916 3859 3567 4137 
Q 3219 4416 2591 4416 
Q 1844 4416 1459 3886 
Q 1075 3356 1075 2328 
Q 1075 1303 1459 773 
Q 1844 244 2591 244 
Q 3113 244 3450 492 
Q 3788 741 3938 1234 
L 4513 1234 
z
" transform="scale(0.015625)"/>
        <path id="DejaVuSerif-2b" d="M 2931 4013 
L 2931 2259 
L 4684 2259 
L 4684 1753 
L 2931 1753 
L 2931 0 
L 2431 0 
L 2431 1753 
L 678 1753 
L 678 2259 
L 2431 2259 
L 2431 4013 
L 2931 4013 
z
" transform="scale(0.015625)"/>
       </defs>
       <use xlink:href="#DejaVuSerif-43"/>
       <use xlink:href="#DejaVuSerif-2b" transform="translate(76.513672 0)"/>
       <use xlink:href="#DejaVuSerif-2b" transform="translate(160.302734 0)"/>
      </g>
     </g>
    </g>
    <g id="xtick_2">
     <g id="line2d_2">
      <g>
       <use xlink:href="#md10da9ff04" x="266.491875" y="249.754688" style="fill: #262626; stroke: #262626; stroke-width: 0.8"/>
      </g>
     </g>
     <g id="text_2">
      <!-- DaphneDSL -->
      <g style="fill: #262626" transform="translate(216.423398 268.792109) scale(0.165 -0.165)">
       <defs>
        <path id="DejaVuSerif-44" d="M 1581 331 
L 2163 331 
Q 3072 331 3558 850 
Q 4044 1369 4044 2338 
Q 4044 3306 3559 3818 
Q 3075 4331 2163 4331 
L 1581 4331 
L 1581 331 
z
M 353 0 
L 353 331 
L 947 331 
L 947 4331 
L 353 4331 
L 353 4666 
L 2209 4666 
Q 3416 4666 4089 4050 
Q 4763 3434 4763 2338 
Q 4763 1238 4088 619 
Q 3413 0 2209 0 
L 353 0 
z
" transform="scale(0.015625)"/>
        <path id="DejaVuSerif-61" d="M 2547 1044 
L 2547 1747 
L 1806 1747 
Q 1378 1747 1168 1562 
Q 959 1378 959 997 
Q 959 650 1171 447 
Q 1384 244 1747 244 
Q 2106 244 2326 466 
Q 2547 688 2547 1044 
z
M 3122 2075 
L 3122 331 
L 3634 331 
L 3634 0 
L 2547 0 
L 2547 359 
Q 2356 128 2106 18 
Q 1856 -91 1522 -91 
Q 969 -91 644 203 
Q 319 497 319 997 
Q 319 1513 691 1797 
Q 1063 2081 1741 2081 
L 2547 2081 
L 2547 2309 
Q 2547 2688 2317 2895 
Q 2088 3103 1672 3103 
Q 1328 3103 1125 2947 
Q 922 2791 872 2484 
L 575 2484 
L 575 3156 
Q 875 3284 1158 3348 
Q 1441 3413 1709 3413 
Q 2400 3413 2761 3070 
Q 3122 2728 3122 2075 
z
" transform="scale(0.015625)"/>
        <path id="DejaVuSerif-70" d="M 1313 1825 
L 1313 1497 
Q 1313 897 1542 583 
Q 1772 269 2209 269 
Q 2650 269 2876 622 
Q 3103 975 3103 1663 
Q 3103 2353 2876 2703 
Q 2650 3053 2209 3053 
Q 1772 3053 1542 2737 
Q 1313 2422 1313 1825 
z
M 738 2988 
L 184 2988 
L 184 3322 
L 1313 3322 
L 1313 2803 
Q 1481 3116 1742 3264 
Q 2003 3413 2388 3413 
Q 3000 3413 3387 2928 
Q 3775 2444 3775 1663 
Q 3775 881 3387 395 
Q 3000 -91 2388 -91 
Q 2003 -91 1742 57 
Q 1481 206 1313 519 
L 1313 -997 
L 1856 -997 
L 1856 -1331 
L 184 -1331 
L 184 -997 
L 738 -997 
L 738 2988 
z
" transform="scale(0.015625)"/>
        <path id="DejaVuSerif-68" d="M 263 0 
L 263 331 
L 781 331 
L 781 4531 
L 231 4531 
L 231 4863 
L 1356 4863 
L 1356 2731 
Q 1516 3069 1770 3241 
Q 2025 3413 2363 3413 
Q 2913 3413 3172 3097 
Q 3431 2781 3431 2113 
L 3431 331 
L 3944 331 
L 3944 0 
L 2356 0 
L 2356 331 
L 2853 331 
L 2853 1931 
Q 2853 2541 2704 2764 
Q 2556 2988 2175 2988 
Q 1775 2988 1565 2697 
Q 1356 2406 1356 1850 
L 1356 331 
L 1856 331 
L 1856 0 
L 263 0 
z
" transform="scale(0.015625)"/>
        <path id="DejaVuSerif-6e" d="M 263 0 
L 263 331 
L 781 331 
L 781 2988 
L 231 2988 
L 231 3322 
L 1356 3322 
L 1356 2731 
Q 1516 3069 1770 3241 
Q 2025 3413 2363 3413 
Q 2913 3413 3172 3097 
Q 3431 2781 3431 2113 
L 3431 331 
L 3944 331 
L 3944 0 
L 2356 0 
L 2356 331 
L 2853 331 
L 2853 1931 
Q 2853 2541 2703 2767 
Q 2553 2994 2175 2994 
Q 1775 2994 1565 2701 
Q 1356 2409 1356 1850 
L 1356 331 
L 1856 331 
L 1856 0 
L 263 0 
z
" transform="scale(0.015625)"/>
        <path id="DejaVuSerif-65" d="M 3469 1600 
L 991 1600 
L 991 1575 
Q 991 903 1244 561 
Q 1497 219 1991 219 
Q 2369 219 2611 417 
Q 2853 616 2950 1006 
L 3413 1006 
Q 3275 459 2904 184 
Q 2534 -91 1931 -91 
Q 1203 -91 761 389 
Q 319 869 319 1663 
Q 319 2450 753 2931 
Q 1188 3413 1894 3413 
Q 2647 3413 3050 2948 
Q 3453 2484 3469 1600 
z
M 2791 1931 
Q 2772 2513 2545 2808 
Q 2319 3103 1894 3103 
Q 1497 3103 1269 2806 
Q 1041 2509 991 1931 
L 2791 1931 
z
" transform="scale(0.015625)"/>
        <path id="DejaVuSerif-53" d="M 594 225 
L 594 1288 
L 953 1284 
Q 969 753 1261 498 
Q 1553 244 2150 244 
Q 2706 244 2998 464 
Q 3291 684 3291 1106 
Q 3291 1444 3114 1625 
Q 2938 1806 2369 1978 
L 1753 2163 
Q 1084 2366 811 2669 
Q 538 2972 538 3500 
Q 538 4094 959 4422 
Q 1381 4750 2144 4750 
Q 2469 4750 2856 4679 
Q 3244 4609 3681 4475 
L 3681 3481 
L 3328 3481 
Q 3275 3975 2998 4195 
Q 2722 4416 2156 4416 
Q 1663 4416 1405 4214 
Q 1147 4013 1147 3628 
Q 1147 3294 1340 3103 
Q 1534 2913 2163 2725 
L 2741 2553 
Q 3375 2363 3645 2067 
Q 3916 1772 3916 1275 
Q 3916 597 3481 253 
Q 3047 -91 2188 -91 
Q 1803 -91 1404 -12 
Q 1006 66 594 225 
z
" transform="scale(0.015625)"/>
        <path id="DejaVuSerif-4c" d="M 353 0 
L 353 331 
L 947 331 
L 947 4331 
L 353 4331 
L 353 4666 
L 2175 4666 
L 2175 4331 
L 1581 4331 
L 1581 384 
L 3713 384 
L 3713 1166 
L 4097 1166 
L 4097 0 
L 353 0 
z
" transform="scale(0.015625)"/>
       </defs>
       <use xlink:href="#DejaVuSerif-44"/>
       <use xlink:href="#DejaVuSerif-61" transform="translate(80.175781 0)"/>
       <use xlink:href="#DejaVuSerif-70" transform="translate(139.794922 0)"/>
       <use xlink:href="#DejaVuSerif-68" transform="translate(203.808594 0)"/>
       <use xlink:href="#DejaVuSerif-6e" transform="translate(268.212891 0)"/>
       <use xlink:href="#DejaVuSerif-65" transform="translate(332.617188 0)"/>
       <use xlink:href="#DejaVuSerif-44" transform="translate(391.796875 0)"/>
       <use xlink:href="#DejaVuSerif-53" transform="translate(471.972656 0)"/>
       <use xlink:href="#DejaVuSerif-4c" transform="translate(540.478516 0)"/>
      </g>
     </g>
    </g>
    <g id="xtick_3">
     <g id="line2d_3">
      <g>
       <use xlink:href="#md10da9ff04" x="406.741875" y="249.754688" style="fill: #262626; stroke: #262626; stroke-width: 0.8"/>
      </g>
     </g>
     <g id="text_3">
      <!-- Julia -->
      <g style="fill: #262626" transform="translate(387.924141 268.792109) scale(0.165 -0.165)">
       <defs>
        <path id="DejaVuSerif-4a" d="M -538 -1119 
L -538 -384 
L -181 -384 
Q -172 -694 -34 -845 
Q 103 -997 378 -997 
Q 750 -997 897 -762 
Q 1044 -528 1044 153 
L 1044 4331 
L 319 4331 
L 319 4666 
L 2272 4666 
L 2272 4331 
L 1678 4331 
L 1678 128 
Q 1678 -644 1368 -987 
Q 1059 -1331 372 -1331 
Q 150 -1331 -79 -1278 
Q -309 -1225 -538 -1119 
z
" transform="scale(0.015625)"/>
        <path id="DejaVuSerif-75" d="M 2266 3322 
L 3341 3322 
L 3341 331 
L 3884 331 
L 3884 0 
L 2766 0 
L 2766 588 
Q 2606 256 2353 82 
Q 2100 -91 1766 -91 
Q 1213 -91 952 223 
Q 691 538 691 1209 
L 691 2988 
L 172 2988 
L 172 3322 
L 1269 3322 
L 1269 1388 
Q 1269 781 1417 556 
Q 1566 331 1947 331 
Q 2347 331 2556 625 
Q 2766 919 2766 1478 
L 2766 2988 
L 2266 2988 
L 2266 3322 
z
" transform="scale(0.015625)"/>
        <path id="DejaVuSerif-6c" d="M 1313 331 
L 1856 331 
L 1856 0 
L 184 0 
L 184 331 
L 738 331 
L 738 4531 
L 184 4531 
L 184 4863 
L 1313 4863 
L 1313 331 
z
" transform="scale(0.015625)"/>
        <path id="DejaVuSerif-69" d="M 622 4353 
Q 622 4497 726 4603 
Q 831 4709 978 4709 
Q 1122 4709 1226 4603 
Q 1331 4497 1331 4353 
Q 1331 4206 1228 4103 
Q 1125 4000 978 4000 
Q 831 4000 726 4103 
Q 622 4206 622 4353 
z
M 1356 331 
L 1900 331 
L 1900 0 
L 231 0 
L 231 331 
L 781 331 
L 781 2988 
L 231 2988 
L 231 3322 
L 1356 3322 
L 1356 331 
z
" transform="scale(0.015625)"/>
       </defs>
       <use xlink:href="#DejaVuSerif-4a"/>
       <use xlink:href="#DejaVuSerif-75" transform="translate(40.087891 0)"/>
       <use xlink:href="#DejaVuSerif-6c" transform="translate(104.492188 0)"/>
       <use xlink:href="#DejaVuSerif-69" transform="translate(136.474609 0)"/>
       <use xlink:href="#DejaVuSerif-61" transform="translate(168.457031 0)"/>
      </g>
     </g>
    </g>
    <g id="xtick_4">
     <g id="line2d_4">
      <g>
       <use xlink:href="#md10da9ff04" x="546.991875" y="249.754688" style="fill: #262626; stroke: #262626; stroke-width: 0.8"/>
      </g>
     </g>
     <g id="text_4">
      <!-- Python -->
      <g style="fill: #262626" transform="translate(517.870664 268.792109) scale(0.165 -0.165)">
       <defs>
        <path id="DejaVuSerif-50" d="M 1581 2375 
L 2406 2375 
Q 2872 2375 3115 2626 
Q 3359 2878 3359 3353 
Q 3359 3831 3115 4081 
Q 2872 4331 2406 4331 
L 1581 4331 
L 1581 2375 
z
M 353 0 
L 353 331 
L 947 331 
L 947 4331 
L 353 4331 
L 353 4666 
L 2559 4666 
Q 3259 4666 3668 4311 
Q 4078 3956 4078 3353 
Q 4078 2753 3668 2397 
Q 3259 2041 2559 2041 
L 1581 2041 
L 1581 331 
L 2303 331 
L 2303 0 
L 353 0 
z
" transform="scale(0.015625)"/>
        <path id="DejaVuSerif-79" d="M 1381 -609 
L 1600 -56 
L 359 2988 
L -19 2988 
L -19 3322 
L 1509 3322 
L 1509 2988 
L 978 2988 
L 1913 703 
L 2847 2988 
L 2350 2988 
L 2350 3322 
L 3597 3322 
L 3597 2988 
L 3225 2988 
L 1703 -750 
Q 1547 -1138 1356 -1280 
Q 1166 -1422 819 -1422 
Q 672 -1422 517 -1397 
Q 363 -1372 206 -1325 
L 206 -691 
L 500 -691 
Q 519 -903 608 -995 
Q 697 -1088 884 -1088 
Q 1056 -1088 1161 -992 
Q 1266 -897 1381 -609 
z
" transform="scale(0.015625)"/>
        <path id="DejaVuSerif-74" d="M 691 2988 
L 184 2988 
L 184 3322 
L 691 3322 
L 691 4353 
L 1269 4353 
L 1269 3322 
L 2350 3322 
L 2350 2988 
L 1269 2988 
L 1269 878 
Q 1269 456 1350 337 
Q 1431 219 1650 219 
Q 1875 219 1978 351 
Q 2081 484 2088 781 
L 2522 781 
Q 2497 328 2275 118 
Q 2053 -91 1600 -91 
Q 1103 -91 897 129 
Q 691 350 691 878 
L 691 2988 
z
" transform="scale(0.015625)"/>
        <path id="DejaVuSerif-6f" d="M 1925 219 
Q 2388 219 2623 584 
Q 2859 950 2859 1663 
Q 2859 2375 2623 2739 
Q 2388 3103 1925 3103 
Q 1463 3103 1227 2739 
Q 991 2375 991 1663 
Q 991 950 1228 584 
Q 1466 219 1925 219 
z
M 1925 -91 
Q 1200 -91 759 389 
Q 319 869 319 1663 
Q 319 2456 758 2934 
Q 1197 3413 1925 3413 
Q 2653 3413 3092 2934 
Q 3531 2456 3531 1663 
Q 3531 869 3092 389 
Q 2653 -91 1925 -91 
z
" transform="scale(0.015625)"/>
       </defs>
       <use xlink:href="#DejaVuSerif-50"/>
       <use xlink:href="#DejaVuSerif-79" transform="translate(67.285156 0)"/>
       <use xlink:href="#DejaVuSerif-74" transform="translate(123.779297 0)"/>
       <use xlink:href="#DejaVuSerif-68" transform="translate(163.964844 0)"/>
       <use xlink:href="#DejaVuSerif-6f" transform="translate(228.369141 0)"/>
       <use xlink:href="#DejaVuSerif-6e" transform="translate(288.574219 0)"/>
      </g>
     </g>
    </g>
    <g id="text_5">
     <!-- Language -->
     <g style="fill: #262626" transform="translate(291.465 289.879453) scale(0.18 -0.18)">
      <defs>
       <path id="DejaVuSerif-67" d="M 3359 2988 
L 3359 72 
Q 3359 -644 2965 -1033 
Q 2572 -1422 1844 -1422 
Q 1516 -1422 1216 -1362 
Q 916 -1303 641 -1184 
L 641 -488 
L 941 -488 
Q 997 -813 1206 -963 
Q 1416 -1113 1806 -1113 
Q 2313 -1113 2548 -827 
Q 2784 -541 2784 72 
L 2784 519 
Q 2616 206 2355 57 
Q 2094 -91 1709 -91 
Q 1097 -91 708 395 
Q 319 881 319 1663 
Q 319 2444 706 2928 
Q 1094 3413 1709 3413 
Q 2094 3413 2355 3264 
Q 2616 3116 2784 2803 
L 2784 3322 
L 3909 3322 
L 3909 2988 
L 3359 2988 
z
M 2784 1825 
Q 2784 2422 2554 2737 
Q 2325 3053 1888 3053 
Q 1444 3053 1217 2703 
Q 991 2353 991 1663 
Q 991 975 1217 622 
Q 1444 269 1888 269 
Q 2325 269 2554 583 
Q 2784 897 2784 1497 
L 2784 1825 
z
" transform="scale(0.015625)"/>
      </defs>
      <use xlink:href="#DejaVuSerif-4c"/>
      <use xlink:href="#DejaVuSerif-61" transform="translate(66.40625 0)"/>
      <use xlink:href="#DejaVuSerif-6e" transform="translate(126.025391 0)"/>
      <use xlink:href="#DejaVuSerif-67" transform="translate(190.429688 0)"/>
      <use xlink:href="#DejaVuSerif-75" transform="translate(254.443359 0)"/>
      <use xlink:href="#DejaVuSerif-61" transform="translate(318.847656 0)"/>
      <use xlink:href="#DejaVuSerif-67" transform="translate(378.466797 0)"/>
      <use xlink:href="#DejaVuSerif-65" transform="translate(442.480469 0)"/>
     </g>
    </g>
   </g>
   <g id="matplotlib.axis_2">
    <g id="ytick_1">
     <g id="line2d_5">
      <path d="M 56.116875 249.754688 
L 617.116875 249.754688 
" clip-path="url(#pfb36b1416c)" style="fill: none; stroke: #808080; stroke-opacity: 0.5; stroke-width: 0.5; stroke-linecap: round"/>
     </g>
     <g id="line2d_6">
      <defs>
       <path id="mca645ba9c7" d="M 0 0 
L -3 0 
" style="stroke: #262626; stroke-width: 0.8"/>
      </defs>
      <g>
       <use xlink:href="#mca645ba9c7" x="56.116875" y="249.754688" style="fill: #262626; stroke: #262626; stroke-width: 0.8"/>
      </g>
     </g>
     <g id="text_6">
      <!-- 0 -->
      <g style="fill: #262626" transform="translate(39.11875 256.023398) scale(0.165 -0.165)">
       <defs>
        <path id="DejaVuSerif-30" d="M 2034 219 
Q 2513 219 2750 744 
Q 2988 1269 2988 2328 
Q 2988 3391 2750 3916 
Q 2513 4441 2034 4441 
Q 1556 4441 1318 3916 
Q 1081 3391 1081 2328 
Q 1081 1269 1318 744 
Q 1556 219 2034 219 
z
M 2034 -91 
Q 1275 -91 848 546 
Q 422 1184 422 2328 
Q 422 3475 848 4112 
Q 1275 4750 2034 4750 
Q 2797 4750 3222 4112 
Q 3647 3475 3647 2328 
Q 3647 1184 3222 546 
Q 2797 -91 2034 -91 
z
" transform="scale(0.015625)"/>
       </defs>
       <use xlink:href="#DejaVuSerif-30"/>
      </g>
     </g>
    </g>
    <g id="ytick_2">
     <g id="line2d_7">
      <path d="M 56.116875 211.97884 
L 617.116875 211.97884 
" clip-path="url(#pfb36b1416c)" style="fill: none; stroke: #808080; stroke-opacity: 0.5; stroke-width: 0.5; stroke-linecap: round"/>
     </g>
     <g id="line2d_8">
      <g>
       <use xlink:href="#mca645ba9c7" x="56.116875" y="211.97884" style="fill: #262626; stroke: #262626; stroke-width: 0.8"/>
      </g>
     </g>
     <g id="text_7">
      <!-- 10 -->
      <g style="fill: #262626" transform="translate(28.620625 218.247551) scale(0.165 -0.165)">
       <defs>
        <path id="DejaVuSerif-31" d="M 909 0 
L 909 331 
L 1722 331 
L 1722 4213 
L 781 3603 
L 781 4013 
L 1919 4750 
L 2350 4750 
L 2350 331 
L 3163 331 
L 3163 0 
L 909 0 
z
" transform="scale(0.015625)"/>
       </defs>
       <use xlink:href="#DejaVuSerif-31"/>
       <use xlink:href="#DejaVuSerif-30" transform="translate(63.623047 0)"/>
      </g>
     </g>
    </g>
    <g id="ytick_3">
     <g id="line2d_9">
      <path d="M 56.116875 174.202993 
L 617.116875 174.202993 
" clip-path="url(#pfb36b1416c)" style="fill: none; stroke: #808080; stroke-opacity: 0.5; stroke-width: 0.5; stroke-linecap: round"/>
     </g>
     <g id="line2d_10">
      <g>
       <use xlink:href="#mca645ba9c7" x="56.116875" y="174.202993" style="fill: #262626; stroke: #262626; stroke-width: 0.8"/>
      </g>
     </g>
     <g id="text_8">
      <!-- 20 -->
      <g style="fill: #262626" transform="translate(28.620625 180.471704) scale(0.165 -0.165)">
       <defs>
        <path id="DejaVuSerif-32" d="M 819 3553 
L 469 3553 
L 469 4384 
Q 803 4563 1142 4656 
Q 1481 4750 1806 4750 
Q 2534 4750 2956 4397 
Q 3378 4044 3378 3438 
Q 3378 2753 2422 1800 
Q 2347 1728 2309 1691 
L 1131 513 
L 3078 513 
L 3078 1088 
L 3444 1088 
L 3444 0 
L 434 0 
L 434 341 
L 1850 1753 
Q 2319 2222 2519 2614 
Q 2719 3006 2719 3438 
Q 2719 3909 2473 4175 
Q 2228 4441 1797 4441 
Q 1350 4441 1106 4219 
Q 863 3997 819 3553 
z
" transform="scale(0.015625)"/>
       </defs>
       <use xlink:href="#DejaVuSerif-32"/>
       <use xlink:href="#DejaVuSerif-30" transform="translate(63.623047 0)"/>
      </g>
     </g>
    </g>
    <g id="ytick_4">
     <g id="line2d_11">
      <path d="M 56.116875 136.427145 
L 617.116875 136.427145 
" clip-path="url(#pfb36b1416c)" style="fill: none; stroke: #808080; stroke-opacity: 0.5; stroke-width: 0.5; stroke-linecap: round"/>
     </g>
     <g id="line2d_12">
      <g>
       <use xlink:href="#mca645ba9c7" x="56.116875" y="136.427145" style="fill: #262626; stroke: #262626; stroke-width: 0.8"/>
      </g>
     </g>
     <g id="text_9">
      <!-- 30 -->
      <g style="fill: #262626" transform="translate(28.620625 142.695856) scale(0.165 -0.165)">
       <defs>
        <path id="DejaVuSerif-33" d="M 622 4469 
Q 988 4606 1323 4678 
Q 1659 4750 1953 4750 
Q 2638 4750 3022 4454 
Q 3406 4159 3406 3634 
Q 3406 3213 3140 2930 
Q 2875 2647 2388 2547 
Q 2963 2466 3280 2130 
Q 3597 1794 3597 1259 
Q 3597 606 3158 257 
Q 2719 -91 1894 -91 
Q 1528 -91 1179 -12 
Q 831 66 488 225 
L 488 1131 
L 838 1131 
Q 869 681 1141 450 
Q 1413 219 1906 219 
Q 2384 219 2661 495 
Q 2938 772 2938 1253 
Q 2938 1803 2653 2086 
Q 2369 2369 1819 2369 
L 1522 2369 
L 1522 2688 
L 1678 2688 
Q 2225 2688 2498 2914 
Q 2772 3141 2772 3597 
Q 2772 4006 2547 4223 
Q 2322 4441 1900 4441 
Q 1478 4441 1245 4241 
Q 1013 4041 972 3647 
L 622 3647 
L 622 4469 
z
" transform="scale(0.015625)"/>
       </defs>
       <use xlink:href="#DejaVuSerif-33"/>
       <use xlink:href="#DejaVuSerif-30" transform="translate(63.623047 0)"/>
      </g>
     </g>
    </g>
    <g id="ytick_5">
     <g id="line2d_13">
      <path d="M 56.116875 98.651298 
L 617.116875 98.651298 
" clip-path="url(#pfb36b1416c)" style="fill: none; stroke: #808080; stroke-opacity: 0.5; stroke-width: 0.5; stroke-linecap: round"/>
     </g>
     <g id="line2d_14">
      <g>
       <use xlink:href="#mca645ba9c7" x="56.116875" y="98.651298" style="fill: #262626; stroke: #262626; stroke-width: 0.8"/>
      </g>
     </g>
     <g id="text_10">
      <!-- 40 -->
      <g style="fill: #262626" transform="translate(28.620625 104.920009) scale(0.165 -0.165)">
       <defs>
        <path id="DejaVuSerif-34" d="M 2234 1581 
L 2234 4063 
L 641 1581 
L 2234 1581 
z
M 3609 0 
L 1484 0 
L 1484 331 
L 2234 331 
L 2234 1247 
L 197 1247 
L 197 1588 
L 2241 4750 
L 2859 4750 
L 2859 1581 
L 3750 1581 
L 3750 1247 
L 2859 1247 
L 2859 331 
L 3609 331 
L 3609 0 
z
" transform="scale(0.015625)"/>
       </defs>
       <use xlink:href="#DejaVuSerif-34"/>
       <use xlink:href="#DejaVuSerif-30" transform="translate(63.623047 0)"/>
      </g>
     </g>
    </g>
    <g id="ytick_6">
     <g id="line2d_15">
      <path d="M 56.116875 60.87545 
L 617.116875 60.87545 
" clip-path="url(#pfb36b1416c)" style="fill: none; stroke: #808080; stroke-opacity: 0.5; stroke-width: 0.5; stroke-linecap: round"/>
     </g>
     <g id="line2d_16">
      <g>
       <use xlink:href="#mca645ba9c7" x="56.116875" y="60.87545" style="fill: #262626; stroke: #262626; stroke-width: 0.8"/>
      </g>
     </g>
     <g id="text_11">
      <!-- 50 -->
      <g style="fill: #262626" transform="translate(28.620625 67.144161) scale(0.165 -0.165)">
       <defs>
        <path id="DejaVuSerif-35" d="M 3219 4666 
L 3219 4153 
L 1081 4153 
L 1081 2816 
Q 1244 2928 1461 2984 
Q 1678 3041 1947 3041 
Q 2703 3041 3140 2622 
Q 3578 2203 3578 1478 
Q 3578 738 3136 323 
Q 2694 -91 1894 -91 
Q 1572 -91 1234 -12 
Q 897 66 544 225 
L 544 1131 
L 897 1131 
Q 925 688 1179 453 
Q 1434 219 1894 219 
Q 2388 219 2653 544 
Q 2919 869 2919 1478 
Q 2919 2084 2655 2407 
Q 2391 2731 1894 2731 
Q 1613 2731 1398 2631 
Q 1184 2531 1019 2322 
L 750 2322 
L 750 4666 
L 3219 4666 
z
" transform="scale(0.015625)"/>
       </defs>
       <use xlink:href="#DejaVuSerif-35"/>
       <use xlink:href="#DejaVuSerif-30" transform="translate(63.623047 0)"/>
      </g>
     </g>
    </g>
    <g id="text_12">
     <!-- ø Execution time (s) -->
     <g style="fill: #262626" transform="translate(20.877188 229.831875) rotate(-90) scale(0.18 -0.18)">
      <defs>
       <path id="DejaVuSerif-f8" d="M 2625 2747 
Q 2506 2925 2331 3014 
Q 2156 3103 1925 3103 
Q 1466 3103 1228 2737 
Q 991 2372 991 1663 
Q 991 1438 1014 1253 
Q 1038 1069 1081 916 
L 2625 2747 
z
M 1222 594 
Q 1347 403 1520 311 
Q 1694 219 1925 219 
Q 2384 219 2621 586 
Q 2859 953 2859 1663 
Q 2859 1900 2836 2089 
Q 2813 2278 2766 2438 
L 1222 594 
z
M 3138 2881 
Q 3331 2650 3431 2340 
Q 3531 2031 3531 1663 
Q 3531 869 3092 389 
Q 2653 -91 1925 -91 
Q 1631 -91 1381 -8 
Q 1131 75 922 244 
L 475 -294 
L 238 -97 
L 703 459 
Q 513 700 416 1001 
Q 319 1303 319 1663 
Q 319 2456 758 2934 
Q 1197 3413 1925 3413 
Q 2219 3413 2469 3333 
Q 2719 3253 2919 3097 
L 3353 3616 
L 3591 3419 
L 3138 2881 
z
" transform="scale(0.015625)"/>
       <path id="DejaVuSerif-20" transform="scale(0.015625)"/>
       <path id="DejaVuSerif-45" d="M 353 0 
L 353 331 
L 947 331 
L 947 4331 
L 353 4331 
L 353 4666 
L 4109 4666 
L 4109 3628 
L 3725 3628 
L 3725 4281 
L 1581 4281 
L 1581 2719 
L 3109 2719 
L 3109 3303 
L 3494 3303 
L 3494 1753 
L 3109 1753 
L 3109 2338 
L 1581 2338 
L 1581 384 
L 3775 384 
L 3775 1038 
L 4159 1038 
L 4159 0 
L 353 0 
z
" transform="scale(0.015625)"/>
       <path id="DejaVuSerif-78" d="M 1863 2028 
L 2559 2988 
L 2113 2988 
L 2113 3322 
L 3391 3322 
L 3391 2988 
L 2950 2988 
L 2059 1759 
L 3097 331 
L 3531 331 
L 3531 0 
L 1997 0 
L 1997 331 
L 2419 331 
L 1697 1325 
L 972 331 
L 1403 331 
L 1403 0 
L 141 0 
L 141 331 
L 581 331 
L 1497 1594 
L 488 2988 
L 78 2988 
L 78 3322 
L 1563 3322 
L 1563 2988 
L 1166 2988 
L 1863 2028 
z
" transform="scale(0.015625)"/>
       <path id="DejaVuSerif-63" d="M 3291 997 
Q 3169 466 2822 187 
Q 2475 -91 1925 -91 
Q 1200 -91 759 389 
Q 319 869 319 1663 
Q 319 2459 759 2936 
Q 1200 3413 1925 3413 
Q 2241 3413 2553 3339 
Q 2866 3266 3181 3116 
L 3181 2266 
L 2847 2266 
Q 2781 2703 2561 2903 
Q 2341 3103 1931 3103 
Q 1466 3103 1228 2742 
Q 991 2381 991 1663 
Q 991 944 1227 581 
Q 1463 219 1931 219 
Q 2303 219 2525 412 
Q 2747 606 2828 997 
L 3291 997 
z
" transform="scale(0.015625)"/>
       <path id="DejaVuSerif-6d" d="M 3316 2675 
Q 3481 3041 3739 3227 
Q 3997 3413 4341 3413 
Q 4863 3413 5119 3089 
Q 5375 2766 5375 2113 
L 5375 331 
L 5894 331 
L 5894 0 
L 4300 0 
L 4300 331 
L 4800 331 
L 4800 2047 
Q 4800 2556 4650 2772 
Q 4500 2988 4153 2988 
Q 3769 2988 3567 2697 
Q 3366 2406 3366 1850 
L 3366 331 
L 3866 331 
L 3866 0 
L 2291 0 
L 2291 331 
L 2791 331 
L 2791 2069 
Q 2791 2566 2641 2777 
Q 2491 2988 2144 2988 
Q 1759 2988 1557 2697 
Q 1356 2406 1356 1850 
L 1356 331 
L 1856 331 
L 1856 0 
L 263 0 
L 263 331 
L 781 331 
L 781 2994 
L 231 2994 
L 231 3322 
L 1356 3322 
L 1356 2731 
Q 1516 3063 1762 3238 
Q 2009 3413 2322 3413 
Q 2709 3413 2968 3220 
Q 3228 3028 3316 2675 
z
" transform="scale(0.015625)"/>
       <path id="DejaVuSerif-28" d="M 2041 -997 
Q 1281 -656 893 83 
Q 506 822 506 1931 
Q 506 3044 893 3783 
Q 1281 4522 2041 4863 
L 2041 4556 
Q 1559 4225 1350 3623 
Q 1141 3022 1141 1931 
Q 1141 844 1350 242 
Q 1559 -359 2041 -691 
L 2041 -997 
z
" transform="scale(0.015625)"/>
       <path id="DejaVuSerif-73" d="M 359 184 
L 359 959 
L 691 959 
Q 703 588 923 403 
Q 1144 219 1575 219 
Q 1963 219 2166 364 
Q 2369 509 2369 788 
Q 2369 1006 2220 1140 
Q 2072 1275 1594 1428 
L 1178 1569 
Q 750 1706 558 1912 
Q 366 2119 366 2438 
Q 366 2894 700 3153 
Q 1034 3413 1625 3413 
Q 1888 3413 2178 3344 
Q 2469 3275 2778 3144 
L 2778 2419 
L 2447 2419 
Q 2434 2741 2221 2922 
Q 2009 3103 1644 3103 
Q 1281 3103 1095 2975 
Q 909 2847 909 2591 
Q 909 2381 1050 2254 
Q 1191 2128 1613 1997 
L 2069 1856 
Q 2541 1709 2748 1489 
Q 2956 1269 2956 922 
Q 2956 450 2595 179 
Q 2234 -91 1600 -91 
Q 1278 -91 972 -22 
Q 666 47 359 184 
z
" transform="scale(0.015625)"/>
       <path id="DejaVuSerif-29" d="M 453 -997 
L 453 -691 
Q 934 -359 1145 242 
Q 1356 844 1356 1931 
Q 1356 3022 1145 3623 
Q 934 4225 453 4556 
L 453 4863 
Q 1216 4522 1603 3783 
Q 1991 3044 1991 1931 
Q 1991 822 1603 83 
Q 1216 -656 453 -997 
z
" transform="scale(0.015625)"/>
      </defs>
      <use xlink:href="#DejaVuSerif-f8"/>
      <use xlink:href="#DejaVuSerif-20" transform="translate(60.205078 0)"/>
      <use xlink:href="#DejaVuSerif-45" transform="translate(91.992188 0)"/>
      <use xlink:href="#DejaVuSerif-78" transform="translate(164.990234 0)"/>
      <use xlink:href="#DejaVuSerif-65" transform="translate(221.386719 0)"/>
      <use xlink:href="#DejaVuSerif-63" transform="translate(280.566406 0)"/>
      <use xlink:href="#DejaVuSerif-75" transform="translate(336.572266 0)"/>
      <use xlink:href="#DejaVuSerif-74" transform="translate(400.976562 0)"/>
      <use xlink:href="#DejaVuSerif-69" transform="translate(441.162109 0)"/>
      <use xlink:href="#DejaVuSerif-6f" transform="translate(473.144531 0)"/>
      <use xlink:href="#DejaVuSerif-6e" transform="translate(533.349609 0)"/>
      <use xlink:href="#DejaVuSerif-20" transform="translate(597.753906 0)"/>
      <use xlink:href="#DejaVuSerif-74" transform="translate(629.541016 0)"/>
      <use xlink:href="#DejaVuSerif-69" transform="translate(669.726562 0)"/>
      <use xlink:href="#DejaVuSerif-6d" transform="translate(701.708984 0)"/>
      <use xlink:href="#DejaVuSerif-65" transform="translate(796.533203 0)"/>
      <use xlink:href="#DejaVuSerif-20" transform="translate(855.712891 0)"/>
      <use xlink:href="#DejaVuSerif-28" transform="translate(887.5 0)"/>
      <use xlink:href="#DejaVuSerif-73" transform="translate(926.513672 0)"/>
      <use xlink:href="#DejaVuSerif-29" transform="translate(977.832031 0)"/>
     </g>
    </g>
   </g>
   <g id="patch_3">
    <path d="M 70.141875 249.754688 
L 92.581875 249.754688 
L 92.581875 208.102887 
L 70.141875 208.102887 
z
" clip-path="url(#pfb36b1416c)" style="fill: #7798ec; stroke: #ffffff; stroke-linejoin: miter"/>
   </g>
   <g id="patch_4">
    <path d="M 210.391875 249.754688 
L 232.831875 249.754688 
L 232.831875 73.041389 
L 210.391875 73.041389 
z
" clip-path="url(#pfb36b1416c)" style="fill: #7798ec; stroke: #ffffff; stroke-linejoin: miter"/>
   </g>
   <g id="patch_5">
    <path d="M 350.641875 249.754688 
L 373.081875 249.754688 
L 373.081875 229.417094 
L 350.641875 229.417094 
z
" clip-path="url(#pfb36b1416c)" style="fill: #7798ec; stroke: #ffffff; stroke-linejoin: miter"/>
   </g>
   <g id="patch_6">
    <path d="M 490.891875 249.754688 
L 513.331875 249.754688 
L 513.331875 212.246895 
L 490.891875 212.246895 
z
" clip-path="url(#pfb36b1416c)" style="fill: #7798ec; stroke: #ffffff; stroke-linejoin: miter"/>
   </g>
   <g id="patch_7">
    <path d="M 92.581875 249.754688 
L 115.021875 249.754688 
L 115.021875 223.951857 
L 92.581875 223.951857 
z
" clip-path="url(#pfb36b1416c)" style="fill: #8470de; stroke: #ffffff; stroke-linejoin: miter"/>
   </g>
   <g id="patch_8">
    <path d="M 232.831875 249.754688 
L 255.271875 249.754688 
L 255.271875 132.958189 
L 232.831875 132.958189 
z
" clip-path="url(#pfb36b1416c)" style="fill: #8470de; stroke: #ffffff; stroke-linejoin: miter"/>
   </g>
   <g id="patch_9">
    <path d="M 373.081875 249.754688 
L 395.521875 249.754688 
L 395.521875 226.826982 
L 373.081875 226.826982 
z
" clip-path="url(#pfb36b1416c)" style="fill: #8470de; stroke: #ffffff; stroke-linejoin: miter"/>
   </g>
   <g id="patch_10">
    <path d="M 513.331875 249.754688 
L 535.771875 249.754688 
L 535.771875 221.120278 
L 513.331875 221.120278 
z
" clip-path="url(#pfb36b1416c)" style="fill: #8470de; stroke: #ffffff; stroke-linejoin: miter"/>
   </g>
   <g id="patch_11">
    <path d="M 115.021875 249.754688 
L 137.461875 249.754688 
L 137.461875 230.866106 
L 115.021875 230.866106 
z
" clip-path="url(#pfb36b1416c)" style="fill: #c53d7f; stroke: #ffffff; stroke-linejoin: miter"/>
   </g>
   <g id="patch_12">
    <path d="M 255.271875 249.754688 
L 277.711875 249.754688 
L 277.711875 165.873569 
L 255.271875 165.873569 
z
" clip-path="url(#pfb36b1416c)" style="fill: #c53d7f; stroke: #ffffff; stroke-linejoin: miter"/>
   </g>
   <g id="patch_13">
    <path d="M 395.521875 249.754688 
L 417.961875 249.754688 
L 417.961875 226.103649 
L 395.521875 226.103649 
z
" clip-path="url(#pfb36b1416c)" style="fill: #c53d7f; stroke: #ffffff; stroke-linejoin: miter"/>
   </g>
   <g id="patch_14">
    <path d="M 535.771875 249.754688 
L 558.211875 249.754688 
L 558.211875 225.074382 
L 535.771875 225.074382 
z
" clip-path="url(#pfb36b1416c)" style="fill: #c53d7f; stroke: #ffffff; stroke-linejoin: miter"/>
   </g>
   <g id="patch_15">
    <path d="M 137.461875 249.754688 
L 159.901875 249.754688 
L 159.901875 231.959007 
L 137.461875 231.959007 
z
" clip-path="url(#pfb36b1416c)" style="fill: #de6920; stroke: #ffffff; stroke-linejoin: miter"/>
   </g>
   <g id="patch_16">
    <path d="M 277.711875 249.754688 
L 300.151875 249.754688 
L 300.151875 175.51253 
L 277.711875 175.51253 
z
" clip-path="url(#pfb36b1416c)" style="fill: #de6920; stroke: #ffffff; stroke-linejoin: miter"/>
   </g>
   <g id="patch_17">
    <path d="M 417.961875 249.754688 
L 440.401875 249.754688 
L 440.401875 226.958922 
L 417.961875 226.958922 
z
" clip-path="url(#pfb36b1416c)" style="fill: #de6920; stroke: #ffffff; stroke-linejoin: miter"/>
   </g>
   <g id="patch_18">
    <path d="M 558.211875 249.754688 
L 580.651875 249.754688 
L 580.651875 225.349544 
L 558.211875 225.349544 
z
" clip-path="url(#pfb36b1416c)" style="fill: #de6920; stroke: #ffffff; stroke-linejoin: miter"/>
   </g>
   <g id="patch_19">
    <path d="M 159.901875 249.754688 
L 182.341875 249.754688 
L 182.341875 229.825223 
L 159.901875 229.825223 
z
" clip-path="url(#pfb36b1416c)" style="fill: #dfa420; stroke: #ffffff; stroke-linejoin: miter"/>
   </g>
   <g id="patch_20">
    <path d="M 300.151875 249.754688 
L 322.591875 249.754688 
L 322.591875 174.925493 
L 300.151875 174.925493 
z
" clip-path="url(#pfb36b1416c)" style="fill: #dfa420; stroke: #ffffff; stroke-linejoin: miter"/>
   </g>
   <g id="patch_21">
    <path d="M 440.401875 249.754688 
L 462.841875 249.754688 
L 462.841875 223.81122 
L 440.401875 223.81122 
z
" clip-path="url(#pfb36b1416c)" style="fill: #dfa420; stroke: #ffffff; stroke-linejoin: miter"/>
   </g>
   <g id="patch_22">
    <path d="M 580.651875 249.754688 
L 603.091875 249.754688 
L 603.091875 222.46077 
L 580.651875 222.46077 
z
" clip-path="url(#pfb36b1416c)" style="fill: #dfa420; stroke: #ffffff; stroke-linejoin: miter"/>
   </g>
   <g id="patch_23">
    <path d="M 126.241875 249.754688 
L 126.241875 249.754688 
L 126.241875 249.754688 
L 126.241875 249.754688 
z
" clip-path="url(#pfb36b1416c)" style="fill: #7798ec; stroke: #ffffff; stroke-linejoin: miter"/>
   </g>
   <g id="patch_24">
    <path d="M 126.241875 249.754688 
L 126.241875 249.754688 
L 126.241875 249.754688 
L 126.241875 249.754688 
z
" clip-path="url(#pfb36b1416c)" style="fill: #8470de; stroke: #ffffff; stroke-linejoin: miter"/>
   </g>
   <g id="patch_25">
    <path d="M 126.241875 249.754688 
L 126.241875 249.754688 
L 126.241875 249.754688 
L 126.241875 249.754688 
z
" clip-path="url(#pfb36b1416c)" style="fill: #c53d7f; stroke: #ffffff; stroke-linejoin: miter"/>
   </g>
   <g id="patch_26">
    <path d="M 126.241875 249.754688 
L 126.241875 249.754688 
L 126.241875 249.754688 
L 126.241875 249.754688 
z
" clip-path="url(#pfb36b1416c)" style="fill: #de6920; stroke: #ffffff; stroke-linejoin: miter"/>
   </g>
   <g id="patch_27">
    <path d="M 126.241875 249.754688 
L 126.241875 249.754688 
L 126.241875 249.754688 
L 126.241875 249.754688 
z
" clip-path="url(#pfb36b1416c)" style="fill: #dfa420; stroke: #ffffff; stroke-linejoin: miter"/>
   </g>
   <g id="patch_28">
    <path d="M 56.116875 249.754688 
L 56.116875 26.877187 
" style="fill: none; stroke: #262626; stroke-width: 0.8; stroke-linejoin: miter; stroke-linecap: square"/>
   </g>
   <g id="patch_29">
    <path d="M 617.116875 249.754688 
L 617.116875 26.877187 
" style="fill: none; stroke: #262626; stroke-width: 0.8; stroke-linejoin: miter; stroke-linecap: square"/>
   </g>
   <g id="patch_30">
    <path d="M 56.116875 249.754688 
L 617.116875 249.754688 
" style="fill: none; stroke: #262626; stroke-width: 0.8; stroke-linejoin: miter; stroke-linecap: square"/>
   </g>
   <g id="patch_31">
    <path d="M 56.116875 26.877187 
L 617.116875 26.877187 
" style="fill: none; stroke: #262626; stroke-width: 0.8; stroke-linejoin: miter; stroke-linecap: square"/>
   </g>
   <g id="text_13">
    <g id="patch_32">
     <path d="M 88.276562 203.136376 
L 88.276562 171.684501 
L 74.447187 171.684501 
L 74.447187 203.136376 
z
" style="fill: #ffffff"/>
    </g>
    <!-- 11.0 -->
    <g transform="translate(85.225 202.996376) rotate(-90) scale(0.14 -0.14)">
     <defs>
      <path id="DejaVuSerif-2e" d="M 603 325 
Q 603 500 722 622 
Q 841 744 1019 744 
Q 1191 744 1312 622 
Q 1434 500 1434 325 
Q 1434 153 1312 31 
Q 1191 -91 1019 -91 
Q 841 -91 722 29 
Q 603 150 603 325 
z
" transform="scale(0.015625)"/>
     </defs>
     <use xlink:href="#DejaVuSerif-31"/>
     <use xlink:href="#DejaVuSerif-31" transform="translate(63.623047 0)"/>
     <use xlink:href="#DejaVuSerif-2e" transform="translate(127.246094 0)"/>
     <use xlink:href="#DejaVuSerif-30" transform="translate(159.033203 0)"/>
    </g>
   </g>
   <g id="text_14">
    <g id="patch_33">
     <path d="M 228.526562 68.074878 
L 228.526562 36.623003 
L 214.697187 36.623003 
L 214.697187 68.074878 
z
" style="fill: #ffffff"/>
    </g>
    <!-- 46.8 -->
    <g transform="translate(225.475 67.934878) rotate(-90) scale(0.14 -0.14)">
     <defs>
      <path id="DejaVuSerif-36" d="M 2094 219 
Q 2534 219 2771 542 
Q 3009 866 3009 1472 
Q 3009 2078 2771 2401 
Q 2534 2725 2094 2725 
Q 1647 2725 1412 2412 
Q 1178 2100 1178 1509 
Q 1178 888 1415 553 
Q 1653 219 2094 219 
z
M 1075 2569 
Q 1288 2803 1556 2918 
Q 1825 3034 2163 3034 
Q 2859 3034 3264 2615 
Q 3669 2197 3669 1472 
Q 3669 763 3233 336 
Q 2797 -91 2069 -91 
Q 1278 -91 853 498 
Q 428 1088 428 2181 
Q 428 3406 931 4078 
Q 1434 4750 2350 4750 
Q 2597 4750 2869 4703 
Q 3141 4656 3425 4563 
L 3425 3794 
L 3072 3794 
Q 3034 4109 2831 4275 
Q 2628 4441 2284 4441 
Q 1678 4441 1381 3981 
Q 1084 3522 1075 2569 
z
" transform="scale(0.015625)"/>
      <path id="DejaVuSerif-38" d="M 2981 1275 
Q 2981 1775 2732 2051 
Q 2484 2328 2034 2328 
Q 1584 2328 1336 2051 
Q 1088 1775 1088 1275 
Q 1088 772 1336 495 
Q 1584 219 2034 219 
Q 2484 219 2732 495 
Q 2981 772 2981 1275 
z
M 2853 3541 
Q 2853 3966 2637 4203 
Q 2422 4441 2034 4441 
Q 1650 4441 1433 4203 
Q 1216 3966 1216 3541 
Q 1216 3113 1433 2875 
Q 1650 2638 2034 2638 
Q 2422 2638 2637 2875 
Q 2853 3113 2853 3541 
z
M 2516 2484 
Q 3047 2413 3344 2092 
Q 3641 1772 3641 1275 
Q 3641 619 3225 264 
Q 2809 -91 2034 -91 
Q 1263 -91 845 264 
Q 428 619 428 1275 
Q 428 1772 725 2092 
Q 1022 2413 1556 2484 
Q 1084 2569 832 2842 
Q 581 3116 581 3541 
Q 581 4103 968 4426 
Q 1356 4750 2034 4750 
Q 2713 4750 3100 4426 
Q 3488 4103 3488 3541 
Q 3488 3116 3236 2842 
Q 2984 2569 2516 2484 
z
" transform="scale(0.015625)"/>
     </defs>
     <use xlink:href="#DejaVuSerif-34"/>
     <use xlink:href="#DejaVuSerif-36" transform="translate(63.623047 0)"/>
     <use xlink:href="#DejaVuSerif-2e" transform="translate(127.246094 0)"/>
     <use xlink:href="#DejaVuSerif-38" transform="translate(159.033203 0)"/>
    </g>
   </g>
   <g id="text_15">
    <g id="patch_34">
     <path d="M 368.776562 224.450584 
L 368.776562 201.906209 
L 354.947187 201.906209 
L 354.947187 224.450584 
z
" style="fill: #ffffff"/>
    </g>
    <!-- 5.4 -->
    <g transform="translate(365.725 224.310584) rotate(-90) scale(0.14 -0.14)">
     <use xlink:href="#DejaVuSerif-35"/>
     <use xlink:href="#DejaVuSerif-2e" transform="translate(63.623047 0)"/>
     <use xlink:href="#DejaVuSerif-34" transform="translate(95.410156 0)"/>
    </g>
   </g>
   <g id="text_16">
    <g id="patch_35">
     <path d="M 509.026562 207.280384 
L 509.026562 184.736009 
L 495.197187 184.736009 
L 495.197187 207.280384 
z
" style="fill: #ffffff"/>
    </g>
    <!-- 9.9 -->
    <g transform="translate(505.975 207.140384) rotate(-90) scale(0.14 -0.14)">
     <defs>
      <path id="DejaVuSerif-39" d="M 2994 2091 
Q 2784 1856 2512 1740 
Q 2241 1625 1900 1625 
Q 1206 1625 804 2044 
Q 403 2463 403 3188 
Q 403 3897 839 4323 
Q 1275 4750 2003 4750 
Q 2794 4750 3217 4161 
Q 3641 3572 3641 2478 
Q 3641 1253 3137 581 
Q 2634 -91 1722 -91 
Q 1475 -91 1203 -44 
Q 931 3 647 97 
L 647 872 
L 997 872 
Q 1038 556 1241 387 
Q 1444 219 1784 219 
Q 2391 219 2687 676 
Q 2984 1134 2994 2091 
z
M 1978 4441 
Q 1534 4441 1298 4117 
Q 1063 3794 1063 3188 
Q 1063 2581 1298 2256 
Q 1534 1931 1978 1931 
Q 2422 1931 2658 2245 
Q 2894 2559 2894 3150 
Q 2894 3772 2656 4106 
Q 2419 4441 1978 4441 
z
" transform="scale(0.015625)"/>
     </defs>
     <use xlink:href="#DejaVuSerif-39"/>
     <use xlink:href="#DejaVuSerif-2e" transform="translate(63.623047 0)"/>
     <use xlink:href="#DejaVuSerif-39" transform="translate(95.410156 0)"/>
    </g>
   </g>
   <g id="text_17">
    <g id="patch_36">
     <path d="M 110.716562 218.985346 
L 110.716562 196.440971 
L 96.887187 196.440971 
L 96.887187 218.985346 
z
" style="fill: #ffffff"/>
    </g>
    <!-- 6.8 -->
    <g transform="translate(107.665 218.845346) rotate(-90) scale(0.14 -0.14)">
     <use xlink:href="#DejaVuSerif-36"/>
     <use xlink:href="#DejaVuSerif-2e" transform="translate(63.623047 0)"/>
     <use xlink:href="#DejaVuSerif-38" transform="translate(95.410156 0)"/>
    </g>
   </g>
   <g id="text_18">
    <g id="patch_37">
     <path d="M 250.966562 127.991678 
L 250.966562 96.539803 
L 237.137187 96.539803 
L 237.137187 127.991678 
z
" style="fill: #ffffff"/>
    </g>
    <!-- 30.9 -->
    <g transform="translate(247.915 127.851678) rotate(-90) scale(0.14 -0.14)">
     <use xlink:href="#DejaVuSerif-33"/>
     <use xlink:href="#DejaVuSerif-30" transform="translate(63.623047 0)"/>
     <use xlink:href="#DejaVuSerif-2e" transform="translate(127.246094 0)"/>
     <use xlink:href="#DejaVuSerif-39" transform="translate(159.033203 0)"/>
    </g>
   </g>
   <g id="text_19">
    <g id="patch_38">
     <path d="M 391.216562 221.860471 
L 391.216562 199.316096 
L 377.387187 199.316096 
L 377.387187 221.860471 
z
" style="fill: #ffffff"/>
    </g>
    <!-- 6.1 -->
    <g transform="translate(388.165 221.720471) rotate(-90) scale(0.14 -0.14)">
     <use xlink:href="#DejaVuSerif-36"/>
     <use xlink:href="#DejaVuSerif-2e" transform="translate(63.623047 0)"/>
     <use xlink:href="#DejaVuSerif-31" transform="translate(95.410156 0)"/>
    </g>
   </g>
   <g id="text_20">
    <g id="patch_39">
     <path d="M 531.466562 216.153767 
L 531.466562 193.609392 
L 517.637187 193.609392 
L 517.637187 216.153767 
z
" style="fill: #ffffff"/>
    </g>
    <!-- 7.6 -->
    <g transform="translate(528.415 216.013767) rotate(-90) scale(0.14 -0.14)">
     <defs>
      <path id="DejaVuSerif-37" d="M 3609 4347 
L 1784 0 
L 1319 0 
L 3059 4153 
L 903 4153 
L 903 3578 
L 538 3578 
L 538 4666 
L 3609 4666 
L 3609 4347 
z
" transform="scale(0.015625)"/>
     </defs>
     <use xlink:href="#DejaVuSerif-37"/>
     <use xlink:href="#DejaVuSerif-2e" transform="translate(63.623047 0)"/>
     <use xlink:href="#DejaVuSerif-36" transform="translate(95.410156 0)"/>
    </g>
   </g>
   <g id="text_21">
    <g id="patch_40">
     <path d="M 133.156562 225.899596 
L 133.156563 203.355221 
L 119.327187 203.355221 
L 119.327187 225.899596 
z
" style="fill: #ffffff"/>
    </g>
    <!-- 5.0 -->
    <g transform="translate(130.105 225.759596) rotate(-90) scale(0.14 -0.14)">
     <use xlink:href="#DejaVuSerif-35"/>
     <use xlink:href="#DejaVuSerif-2e" transform="translate(63.623047 0)"/>
     <use xlink:href="#DejaVuSerif-30" transform="translate(95.410156 0)"/>
    </g>
   </g>
   <g id="text_22">
    <g id="patch_41">
     <path d="M 273.406562 160.907059 
L 273.406562 129.455184 
L 259.577187 129.455184 
L 259.577187 160.907059 
z
" style="fill: #ffffff"/>
    </g>
    <!-- 22.2 -->
    <g transform="translate(270.355 160.767059) rotate(-90) scale(0.14 -0.14)">
     <use xlink:href="#DejaVuSerif-32"/>
     <use xlink:href="#DejaVuSerif-32" transform="translate(63.623047 0)"/>
     <use xlink:href="#DejaVuSerif-2e" transform="translate(127.246094 0)"/>
     <use xlink:href="#DejaVuSerif-32" transform="translate(159.033203 0)"/>
    </g>
   </g>
   <g id="text_23">
    <g id="patch_42">
     <path d="M 413.656562 221.137138 
L 413.656562 198.592763 
L 399.827187 198.592763 
L 399.827187 221.137138 
z
" style="fill: #ffffff"/>
    </g>
    <!-- 6.3 -->
    <g transform="translate(410.605 220.997138) rotate(-90) scale(0.14 -0.14)">
     <use xlink:href="#DejaVuSerif-36"/>
     <use xlink:href="#DejaVuSerif-2e" transform="translate(63.623047 0)"/>
     <use xlink:href="#DejaVuSerif-33" transform="translate(95.410156 0)"/>
    </g>
   </g>
   <g id="text_24">
    <g id="patch_43">
     <path d="M 553.906562 220.107871 
L 553.906562 197.563496 
L 540.077187 197.563496 
L 540.077187 220.107871 
z
" style="fill: #ffffff"/>
    </g>
    <!-- 6.5 -->
    <g transform="translate(550.855 219.967871) rotate(-90) scale(0.14 -0.14)">
     <use xlink:href="#DejaVuSerif-36"/>
     <use xlink:href="#DejaVuSerif-2e" transform="translate(63.623047 0)"/>
     <use xlink:href="#DejaVuSerif-35" transform="translate(95.410156 0)"/>
    </g>
   </g>
   <g id="text_25">
    <g id="patch_44">
     <path d="M 155.596562 226.992496 
L 155.596563 204.448121 
L 141.767187 204.448121 
L 141.767187 226.992496 
z
" style="fill: #ffffff"/>
    </g>
    <!-- 4.7 -->
    <g transform="translate(152.545 226.852496) rotate(-90) scale(0.14 -0.14)">
     <use xlink:href="#DejaVuSerif-34"/>
     <use xlink:href="#DejaVuSerif-2e" transform="translate(63.623047 0)"/>
     <use xlink:href="#DejaVuSerif-37" transform="translate(95.410156 0)"/>
    </g>
   </g>
   <g id="text_26">
    <g id="patch_45">
     <path d="M 295.846563 170.546019 
L 295.846563 139.094144 
L 282.017188 139.094144 
L 282.017188 170.546019 
z
" style="fill: #ffffff"/>
    </g>
    <!-- 19.7 -->
    <g transform="translate(292.795 170.406019) rotate(-90) scale(0.14 -0.14)">
     <use xlink:href="#DejaVuSerif-31"/>
     <use xlink:href="#DejaVuSerif-39" transform="translate(63.623047 0)"/>
     <use xlink:href="#DejaVuSerif-2e" transform="translate(127.246094 0)"/>
     <use xlink:href="#DejaVuSerif-37" transform="translate(159.033203 0)"/>
    </g>
   </g>
   <g id="text_27">
    <g id="patch_46">
     <path d="M 436.096562 221.992412 
L 436.096562 199.448037 
L 422.267187 199.448037 
L 422.267187 221.992412 
z
" style="fill: #ffffff"/>
    </g>
    <!-- 6.0 -->
    <g transform="translate(433.045 221.852412) rotate(-90) scale(0.14 -0.14)">
     <use xlink:href="#DejaVuSerif-36"/>
     <use xlink:href="#DejaVuSerif-2e" transform="translate(63.623047 0)"/>
     <use xlink:href="#DejaVuSerif-30" transform="translate(95.410156 0)"/>
    </g>
   </g>
   <g id="text_28">
    <g id="patch_47">
     <path d="M 576.346563 220.383033 
L 576.346563 197.838658 
L 562.517187 197.838658 
L 562.517187 220.383033 
z
" style="fill: #ffffff"/>
    </g>
    <!-- 6.5 -->
    <g transform="translate(573.295 220.243033) rotate(-90) scale(0.14 -0.14)">
     <use xlink:href="#DejaVuSerif-36"/>
     <use xlink:href="#DejaVuSerif-2e" transform="translate(63.623047 0)"/>
     <use xlink:href="#DejaVuSerif-35" transform="translate(95.410156 0)"/>
    </g>
   </g>
   <g id="text_29">
    <g id="patch_48">
     <path d="M 178.036562 224.858713 
L 178.036563 202.314338 
L 164.207187 202.314338 
L 164.207187 224.858713 
z
" style="fill: #ffffff"/>
    </g>
    <!-- 5.3 -->
    <g transform="translate(174.985 224.718713) rotate(-90) scale(0.14 -0.14)">
     <use xlink:href="#DejaVuSerif-35"/>
     <use xlink:href="#DejaVuSerif-2e" transform="translate(63.623047 0)"/>
     <use xlink:href="#DejaVuSerif-33" transform="translate(95.410156 0)"/>
    </g>
   </g>
   <g id="text_30">
    <g id="patch_49">
     <path d="M 318.286562 169.958983 
L 318.286562 138.507108 
L 304.457187 138.507108 
L 304.457187 169.958983 
z
" style="fill: #ffffff"/>
    </g>
    <!-- 19.8 -->
    <g transform="translate(315.235 169.818983) rotate(-90) scale(0.14 -0.14)">
     <use xlink:href="#DejaVuSerif-31"/>
     <use xlink:href="#DejaVuSerif-39" transform="translate(63.623047 0)"/>
     <use xlink:href="#DejaVuSerif-2e" transform="translate(127.246094 0)"/>
     <use xlink:href="#DejaVuSerif-38" transform="translate(159.033203 0)"/>
    </g>
   </g>
   <g id="text_31">
    <g id="patch_50">
     <path d="M 458.536562 218.844709 
L 458.536562 196.300334 
L 444.707187 196.300334 
L 444.707187 218.844709 
z
" style="fill: #ffffff"/>
    </g>
    <!-- 6.9 -->
    <g transform="translate(455.485 218.704709) rotate(-90) scale(0.14 -0.14)">
     <use xlink:href="#DejaVuSerif-36"/>
     <use xlink:href="#DejaVuSerif-2e" transform="translate(63.623047 0)"/>
     <use xlink:href="#DejaVuSerif-39" transform="translate(95.410156 0)"/>
    </g>
   </g>
   <g id="text_32">
    <g id="patch_51">
     <path d="M 598.786562 217.49426 
L 598.786562 194.949885 
L 584.957187 194.949885 
L 584.957187 217.49426 
z
" style="fill: #ffffff"/>
    </g>
    <!-- 7.2 -->
    <g transform="translate(595.735 217.35426) rotate(-90) scale(0.14 -0.14)">
     <use xlink:href="#DejaVuSerif-37"/>
     <use xlink:href="#DejaVuSerif-2e" transform="translate(63.623047 0)"/>
     <use xlink:href="#DejaVuSerif-32" transform="translate(95.410156 0)"/>
    </g>
   </g>
   <g id="text_33">
    <!-- Experiment set (B): CC for amazon0601 -->
    <g style="fill: #262626" transform="translate(153.943594 20.877187) scale(0.18 -0.18)">
     <defs>
      <path id="DejaVuSerif-72" d="M 3059 3328 
L 3059 2497 
L 2728 2497 
Q 2713 2744 2591 2866 
Q 2469 2988 2234 2988 
Q 1809 2988 1582 2694 
Q 1356 2400 1356 1850 
L 1356 331 
L 2022 331 
L 2022 0 
L 263 0 
L 263 331 
L 781 331 
L 781 2994 
L 231 2994 
L 231 3322 
L 1356 3322 
L 1356 2731 
Q 1525 3078 1790 3245 
Q 2056 3413 2438 3413 
Q 2578 3413 2733 3391 
Q 2888 3369 3059 3328 
z
" transform="scale(0.015625)"/>
      <path id="DejaVuSerif-42" d="M 1581 331 
L 2516 331 
Q 3078 331 3337 575 
Q 3597 819 3597 1350 
Q 3597 1878 3339 2120 
Q 3081 2363 2516 2363 
L 1581 2363 
L 1581 331 
z
M 1581 2694 
L 2375 2694 
Q 2888 2694 3123 2891 
Q 3359 3088 3359 3513 
Q 3359 3941 3123 4136 
Q 2888 4331 2375 4331 
L 1581 4331 
L 1581 2694 
z
M 353 0 
L 353 331 
L 947 331 
L 947 4331 
L 353 4331 
L 353 4666 
L 2656 4666 
Q 3363 4666 3720 4377 
Q 4078 4088 4078 3513 
Q 4078 3097 3829 2850 
Q 3581 2603 3103 2547 
Q 3697 2472 4005 2167 
Q 4313 1863 4313 1350 
Q 4313 656 3875 328 
Q 3438 0 2509 0 
L 353 0 
z
" transform="scale(0.015625)"/>
      <path id="DejaVuSerif-3a" d="M 666 325 
Q 666 500 786 622 
Q 906 744 1081 744 
Q 1256 744 1376 622 
Q 1497 500 1497 325 
Q 1497 150 1378 29 
Q 1259 -91 1081 -91 
Q 903 -91 784 29 
Q 666 150 666 325 
z
M 666 2363 
Q 666 2538 786 2658 
Q 906 2778 1081 2778 
Q 1259 2778 1378 2659 
Q 1497 2541 1497 2363 
Q 1497 2184 1378 2065 
Q 1259 1947 1081 1947 
Q 906 1947 786 2067 
Q 666 2188 666 2363 
z
" transform="scale(0.015625)"/>
      <path id="DejaVuSerif-66" d="M 2753 4078 
L 2450 4078 
Q 2447 4313 2317 4434 
Q 2188 4556 1941 4556 
Q 1619 4556 1487 4379 
Q 1356 4203 1356 3750 
L 1356 3322 
L 2284 3322 
L 2284 2988 
L 1356 2988 
L 1356 331 
L 2094 331 
L 2094 0 
L 231 0 
L 231 331 
L 781 331 
L 781 2988 
L 231 2988 
L 231 3322 
L 781 3322 
L 781 3738 
Q 781 4294 1070 4578 
Q 1359 4863 1919 4863 
Q 2128 4863 2337 4825 
Q 2547 4788 2753 4709 
L 2753 4078 
z
" transform="scale(0.015625)"/>
      <path id="DejaVuSerif-7a" d="M 256 0 
L 256 269 
L 2338 2988 
L 691 2988 
L 691 2413 
L 359 2413 
L 359 3322 
L 3078 3322 
L 3078 3053 
L 997 331 
L 2803 331 
L 2803 934 
L 3138 934 
L 3138 0 
L 256 0 
z
" transform="scale(0.015625)"/>
     </defs>
     <use xlink:href="#DejaVuSerif-45"/>
     <use xlink:href="#DejaVuSerif-78" transform="translate(72.998047 0)"/>
     <use xlink:href="#DejaVuSerif-70" transform="translate(129.394531 0)"/>
     <use xlink:href="#DejaVuSerif-65" transform="translate(193.408203 0)"/>
     <use xlink:href="#DejaVuSerif-72" transform="translate(252.587891 0)"/>
     <use xlink:href="#DejaVuSerif-69" transform="translate(300.390625 0)"/>
     <use xlink:href="#DejaVuSerif-6d" transform="translate(332.373047 0)"/>
     <use xlink:href="#DejaVuSerif-65" transform="translate(427.197266 0)"/>
     <use xlink:href="#DejaVuSerif-6e" transform="translate(486.376953 0)"/>
     <use xlink:href="#DejaVuSerif-74" transform="translate(550.78125 0)"/>
     <use xlink:href="#DejaVuSerif-20" transform="translate(590.966797 0)"/>
     <use xlink:href="#DejaVuSerif-73" transform="translate(622.753906 0)"/>
     <use xlink:href="#DejaVuSerif-65" transform="translate(674.072266 0)"/>
     <use xlink:href="#DejaVuSerif-74" transform="translate(733.251953 0)"/>
     <use xlink:href="#DejaVuSerif-20" transform="translate(773.4375 0)"/>
     <use xlink:href="#DejaVuSerif-28" transform="translate(805.224609 0)"/>
     <use xlink:href="#DejaVuSerif-42" transform="translate(844.238281 0)"/>
     <use xlink:href="#DejaVuSerif-29" transform="translate(917.724609 0)"/>
     <use xlink:href="#DejaVuSerif-3a" transform="translate(956.738281 0)"/>
     <use xlink:href="#DejaVuSerif-20" transform="translate(990.429688 0)"/>
     <use xlink:href="#DejaVuSerif-43" transform="translate(1022.216797 0)"/>
     <use xlink:href="#DejaVuSerif-43" transform="translate(1098.730469 0)"/>
     <use xlink:href="#DejaVuSerif-20" transform="translate(1175.244141 0)"/>
     <use xlink:href="#DejaVuSerif-66" transform="translate(1207.03125 0)"/>
     <use xlink:href="#DejaVuSerif-6f" transform="translate(1244.042969 0)"/>
     <use xlink:href="#DejaVuSerif-72" transform="translate(1304.248047 0)"/>
     <use xlink:href="#DejaVuSerif-20" transform="translate(1352.050781 0)"/>
     <use xlink:href="#DejaVuSerif-61" transform="translate(1383.837891 0)"/>
     <use xlink:href="#DejaVuSerif-6d" transform="translate(1443.457031 0)"/>
     <use xlink:href="#DejaVuSerif-61" transform="translate(1538.28125 0)"/>
     <use xlink:href="#DejaVuSerif-7a" transform="translate(1597.900391 0)"/>
     <use xlink:href="#DejaVuSerif-6f" transform="translate(1650.585938 0)"/>
     <use xlink:href="#DejaVuSerif-6e" transform="translate(1710.791016 0)"/>
     <use xlink:href="#DejaVuSerif-30" transform="translate(1775.195312 0)"/>
     <use xlink:href="#DejaVuSerif-36" transform="translate(1838.818359 0)"/>
     <use xlink:href="#DejaVuSerif-30" transform="translate(1902.441406 0)"/>
     <use xlink:href="#DejaVuSerif-31" transform="translate(1966.064453 0)"/>
    </g>
   </g>
   <g id="legend_1">
    <g id="patch_52">
     <path d="M 352.374375 114.185625 
L 605.566875 114.185625 
Q 608.866875 114.185625 608.866875 110.885625 
L 608.866875 38.427188 
Q 608.866875 35.127187 605.566875 35.127187 
L 352.374375 35.127187 
Q 349.074375 35.127187 349.074375 38.427188 
L 349.074375 110.885625 
Q 349.074375 114.185625 352.374375 114.185625 
z
" style="fill: #ffffff; stroke: #cccccc; stroke-linejoin: miter"/>
    </g>
    <g id="text_34">
     <!-- MPI processes -->
     <g style="fill: #262626" transform="translate(412.255312 55.404375) scale(0.18 -0.18)">
      <defs>
       <path id="DejaVuSerif-4d" d="M 353 0 
L 353 331 
L 947 331 
L 947 4331 
L 319 4331 
L 319 4666 
L 1678 4666 
L 3316 1344 
L 4953 4666 
L 6228 4666 
L 6228 4331 
L 5606 4331 
L 5606 331 
L 6203 331 
L 6203 0 
L 4378 0 
L 4378 331 
L 4972 331 
L 4972 3938 
L 3372 684 
L 2931 684 
L 1331 3938 
L 1331 331 
L 1925 331 
L 1925 0 
L 353 0 
z
" transform="scale(0.015625)"/>
       <path id="DejaVuSerif-49" d="M 1581 331 
L 2175 331 
L 2175 0 
L 353 0 
L 353 331 
L 947 331 
L 947 4331 
L 353 4331 
L 353 4666 
L 2175 4666 
L 2175 4331 
L 1581 4331 
L 1581 331 
z
" transform="scale(0.015625)"/>
      </defs>
      <use xlink:href="#DejaVuSerif-4d"/>
      <use xlink:href="#DejaVuSerif-50" transform="translate(102.392578 0)"/>
      <use xlink:href="#DejaVuSerif-49" transform="translate(169.677734 0)"/>
      <use xlink:href="#DejaVuSerif-20" transform="translate(209.179688 0)"/>
      <use xlink:href="#DejaVuSerif-70" transform="translate(240.966797 0)"/>
      <use xlink:href="#DejaVuSerif-72" transform="translate(304.980469 0)"/>
      <use xlink:href="#DejaVuSerif-6f" transform="translate(352.783203 0)"/>
      <use xlink:href="#DejaVuSerif-63" transform="translate(412.988281 0)"/>
      <use xlink:href="#DejaVuSerif-65" transform="translate(468.994141 0)"/>
      <use xlink:href="#DejaVuSerif-73" transform="translate(528.173828 0)"/>
      <use xlink:href="#DejaVuSerif-73" transform="translate(579.492188 0)"/>
      <use xlink:href="#DejaVuSerif-65" transform="translate(630.810547 0)"/>
      <use xlink:href="#DejaVuSerif-73" transform="translate(689.990234 0)"/>
     </g>
    </g>
    <g id="patch_53">
     <path d="M 355.674375 79.935234 
L 388.674375 79.935234 
L 388.674375 68.385234 
L 355.674375 68.385234 
z
" style="fill: #7798ec; stroke: #ffffff; stroke-linejoin: miter"/>
    </g>
    <g id="text_35">
     <!-- 1 -->
     <g style="fill: #262626" transform="translate(401.874375 79.935234) scale(0.165 -0.165)">
      <use xlink:href="#DejaVuSerif-31"/>
     </g>
    </g>
    <g id="patch_54">
     <path d="M 355.674375 104.154141 
L 388.674375 104.154141 
L 388.674375 92.604141 
L 355.674375 92.604141 
z
" style="fill: #8470de; stroke: #ffffff; stroke-linejoin: miter"/>
    </g>
    <g id="text_36">
     <!-- 2 -->
     <g style="fill: #262626" transform="translate(401.874375 104.154141) scale(0.165 -0.165)">
      <use xlink:href="#DejaVuSerif-32"/>
     </g>
    </g>
    <g id="patch_55">
     <path d="M 445.3725 79.935234 
L 478.3725 79.935234 
L 478.3725 68.385234 
L 445.3725 68.385234 
z
" style="fill: #c53d7f; stroke: #ffffff; stroke-linejoin: miter"/>
    </g>
    <g id="text_37">
     <!-- 4 -->
     <g style="fill: #262626" transform="translate(491.5725 79.935234) scale(0.165 -0.165)">
      <use xlink:href="#DejaVuSerif-34"/>
     </g>
    </g>
    <g id="patch_56">
     <path d="M 445.3725 104.154141 
L 478.3725 104.154141 
L 478.3725 92.604141 
L 445.3725 92.604141 
z
" style="fill: #de6920; stroke: #ffffff; stroke-linejoin: miter"/>
    </g>
    <g id="text_38">
     <!-- 8 -->
     <g style="fill: #262626" transform="translate(491.5725 104.154141) scale(0.165 -0.165)">
      <use xlink:href="#DejaVuSerif-38"/>
     </g>
    </g>
    <g id="patch_57">
     <path d="M 535.070625 79.935234 
L 568.070625 79.935234 
L 568.070625 68.385234 
L 535.070625 68.385234 
z
" style="fill: #dfa420; stroke: #ffffff; stroke-linejoin: miter"/>
    </g>
    <g id="text_39">
     <!-- 16 -->
     <g style="fill: #262626" transform="translate(581.270625 79.935234) scale(0.165 -0.165)">
      <use xlink:href="#DejaVuSerif-31"/>
      <use xlink:href="#DejaVuSerif-36" transform="translate(63.623047 0)"/>
     </g>
    </g>
   </g>
  </g>
 </g>
 <defs>
  <clipPath id="pfb36b1416c">
   <rect x="56.116875" y="26.877187" width="561" height="222.8775"/>
  </clipPath>
 </defs>
</svg>
